<?xml version="1.0" encoding="utf-8"?>
<!-- Generator: Adobe Illustrator 21.0.0, SVG Export Plug-In . SVG Version: 6.00 Build 0)  -->
<svg version="1.1" id="Layer_1" xmlns="http://www.w3.org/2000/svg" xmlns:xlink="http://www.w3.org/1999/xlink" x="0px" y="0px"
	 viewBox="0 0 400 102" style="enable-background:new 0 0 400 102;" xml:space="preserve">
<style type="text/css">
	.st0{font-family:'DIN-Black';}
	.st1{font-size:55.9326px;}
	.st2{fill:#03C771;}
</style>
<g id="Logo_1_">
	<text transform="matrix(1 0 0 1 10.2593 54.2822)" class="st0 st1">Newsuptodate </text>
	<path class="st2" d="M143.6,77.6c1,0.9,1.9,1.9,3,2.7c0.5,0.5,1.1,0.9,1.6,1.4c0,0,0.1,0.1,0.1,0.1c1.2,1,2.5,1.9,3.9,2.8
		c1.3,0.9,2.7,1.8,4.2,2.6c1.8,1,3.7,2,5.6,2.9c0.4,0.2,0.8,0.4,1.2,0.5c0.8,0.3,1.6,0.7,2.4,1c0.4,0.2,0.8,0.3,1.2,0.5
		c1.6,0.6,3.3,1.2,5,1.8c1.3,0.4,2.6,0.8,3.9,1.1c3.5,0.9,7.2,1.7,11,2.2c0.4,0.1,0.8,0.1,1.2,0.2c0.4,0,0.8,0.1,1.2,0.2
		c0.8,0.1,1.7,0.2,2.5,0.3c1.2,0.1,2.4,0.2,3.7,0.3c1.6,0.1,3.3,0.2,5,0.3c0.4,0,0.8,0,1.3,0c2.1,0,4.2,0,6.3,0
		c1.3,0,2.6-0.1,3.9-0.2c3.1-0.2,6.3-0.4,9.4-0.8c0.5-0.1,1-0.1,1.5-0.2c3.6-0.5,7.2-1.1,10.9-1.8c1.7-0.3,3.3-0.7,5-1.1l1.2-0.3
		c1.2-0.3,2.5-0.6,3.7-0.9c2.9-0.8,5.7-1.6,8.6-2.5l0,0c0.5-0.2,1-0.3,1.5-0.5c0.2,0,0.3-0.1,0.5-0.1l1.1-0.4c0.2,0,0.3-0.1,0.4-0.1
		c0.4-0.2,0.9-0.3,1.3-0.4c0.1,0,0.1-0.1,0.2-0.1l1.6-0.6c0,0,0,0,0.1,0c0.5-0.2,1-0.4,1.5-0.5c0.1,0,0.2-0.1,0.2-0.1
		c0.5-0.2,1-0.4,1.4-0.6c0,0,0.1,0,0.1,0c1.1-0.4,2.2-0.8,3.3-1.3l1.4,2.8c0.9,1.8,2.9,2.3,4.5,1.5c0.6-0.3,1.1-0.7,1.4-1.4l1.6-2.9
		l6.9-12.1c1.2-2-0.1-4.6-2.4-5l-17.3-2.7c-0.7-0.1-1.4,0-2,0.3c-1.6,0.8-2.4,2.7-1.5,4.5l1.4,2.9c-4.4,1.8-8.8,3.3-13.3,4.7
		c-2.9,0.9-5.8,1.7-8.7,2.4c-2.2,0.5-4.3,1-6.5,1.5c-5.5,1.1-10.9,1.9-16.1,2.3c-3.3,0.3-6.5,0.4-9.6,0.4c-4.2,0-8.2-0.2-12.2-0.6
		c-4.9-0.5-9.5-1.3-13.8-2.5c-5.6-1.5-10.9-3.8-16.2-6.4c-7.3-3.6-13.2-11.4-16.1-15.7c-1.1-1.7-3.3-2.3-5.1-1.4l-5,2.5
		c-2.1,1-2.9,3.6-1.7,5.7c1.8,3.1,4,6,6.4,8.6C142.2,76.1,142.9,76.8,143.6,77.6L143.6,77.6z M143.6,77.6"/>
</g>
</svg>
