<?xml version="1.0" encoding="utf-8"?>
<!-- Generator: Adobe Illustrator 21.0.0, SVG Export Plug-In . SVG Version: 6.00 Build 0)  -->
<svg version="1.1" id="Layer_1" xmlns="http://www.w3.org/2000/svg" xmlns:xlink="http://www.w3.org/1999/xlink" x="0px" y="0px"
	 viewBox="0 0 235 90" style="enable-background:new 0 0 235 90;" xml:space="preserve">
<style type="text/css">
	.st0{fill:#03C771;}
</style>
<g id="Logo_1_">
	<g>
		<path d="M28.2,46.3l-7-11.1v11.1h-5.4v-22h4.7l7,11.1V24.2h5.4v22H28.2z"/>
		<path d="M41.3,39.6c0,1.4,1.1,2.6,2.9,2.6c1.8,0,2.5-0.5,3.4-1.4l3,3c-1.7,1.7-3.4,2.6-6.5,2.6c-3.7,0-7.9-1.3-7.9-8.5
			c0-5.4,3.1-8.5,7.5-8.5c4.8,0,7.5,3.5,7.5,7.9v2.3H41.3z M46,34.9c-0.3-0.7-1-1.3-2.2-1.3s-1.9,0.6-2.2,1.3
			c-0.2,0.4-0.3,0.9-0.3,1.3h4.9C46.3,35.8,46.2,35.3,46,34.9z"/>
		<path d="M71.2,46.3h-4l-3-9.1l-3,9.1h-4l-5-16.6h5.3l2.1,8.6l2.9-8.6h3.5l2.9,8.6l2.1-8.6h5.3L71.2,46.3z"/>
		<path d="M83.8,46.4c-2.5,0-4.9-0.1-7.2-2.4l3.3-3.3c1.4,1.4,3.2,1.4,4,1.4c0.7,0,2.2-0.2,2.2-1.1c0-0.5-0.2-1-1.2-1.1l-2.6-0.2
			c-2.9-0.3-4.8-1.6-4.8-4.8c0-3.7,3.3-5.5,6.6-5.5c2.7,0,4.9,0.4,6.6,2l-3.1,3.1c-0.8-0.8-2.2-1-3.5-1c-1.2,0-1.6,0.6-1.6,1
			c0,0.2-0.1,0.8,1.1,0.9l2.6,0.2c3.5,0.3,5,2.4,5,5.1C91,44.7,87.6,46.4,83.8,46.4z"/>
		<path d="M102.9,46.3v-1.4c-1,1-2.5,1.5-3.9,1.5c-1.6,0-2.8-0.5-3.7-1.4c-1.4-1.4-1.7-3-1.7-4.8V29.6h5.1v10c0,1.9,1.4,2.3,2,2.3
			c0.7,0,2-0.4,2-2.3v-10h5.1v16.6H102.9z"/>
		<path d="M124.4,44.9c-1,1-2.4,1.5-4,1.5c-1.6,0-2.8-0.5-3.7-1.4v6.6h-5.1v-22h4.9V31c1-1,2.1-1.5,3.8-1.5c1.6,0,3.1,0.6,4,1.5
			c1.6,1.6,1.5,4.5,1.5,7C126,40.4,126.1,43.3,124.4,44.9z M118.8,34c-1.9,0-2.1,1.5-2.1,3.9s0.2,3.9,2.1,3.9c1.9,0,2.1-1.5,2.1-3.9
			S120.7,34,118.8,34z"/>
		<path d="M134.8,46.3c-3.7,0-5.2-2.6-5.2-4.9v-7.2h-1.5v-3.9h1.5v-4.8h5.1v4.8h2.6v3.9h-2.6V41c0,0.6,0.3,1,1,1h1.6v4.3H134.8z"/>
		<path d="M152.4,44.3c-1,1.1-2.7,2.1-5.3,2.1c-2.7,0-4.4-1.1-5.3-2.1c-1.4-1.5-1.8-3.1-1.8-6.4c0-3.2,0.4-4.9,1.8-6.4
			c1-1.1,2.7-2.1,5.3-2.1c2.7,0,4.4,1.1,5.3,2.1c1.4,1.5,1.8,3.1,1.8,6.4C154.2,41.2,153.8,42.8,152.4,44.3z M148.4,34.5
			c-0.3-0.3-0.7-0.5-1.4-0.5c-0.6,0-1.1,0.2-1.4,0.5c-0.6,0.6-0.7,1.8-0.7,3.5c0,1.6,0.1,2.8,0.7,3.5c0.3,0.3,0.7,0.5,1.4,0.5
			c0.6,0,1.1-0.2,1.4-0.5c0.6-0.6,0.7-1.8,0.7-3.5C149.1,36.3,149,35.1,148.4,34.5z"/>
		<path d="M166.3,46.3v-1.4c-1,1-2.1,1.5-3.8,1.5c-1.6,0-3.1-0.6-4-1.5c-1.6-1.6-1.5-4.5-1.5-7c0-2.4-0.1-5.3,1.5-7
			c1-1,2.4-1.5,4-1.5c1.6,0,2.8,0.5,3.7,1.4v-6.6h5.1v22H166.3z M164,34c-1.9,0-2.1,1.5-2.1,3.9s0.2,3.9,2.1,3.9s2.1-1.5,2.1-3.9
			S165.9,34,164,34z"/>
		<path d="M183.1,46.3v-1.4c-1,1-1.9,1.5-3.7,1.5c-1.7,0-3.1-0.6-4-1.5c-1-1-1.5-2.3-1.5-3.9c0-2.5,1.7-4.8,5.7-4.8h3.4v-0.4
			c0-1.5-0.7-2.1-2.5-2.1c-1.3,0-1.9,0.3-2.7,1.1l-3.2-3.2c1.7-1.7,3.2-2.2,6.1-2.2c4.8,0,7.3,2,7.3,6v10.8H183.1z M183,39.6h-2.6
			c-1,0-1.6,0.6-1.6,1.3c0,0.7,0.6,1.4,1.7,1.4c1,0,1.5-0.1,2-0.6c0.4-0.3,0.5-0.9,0.5-1.7V39.6z"/>
		<path d="M197.1,46.3c-3.7,0-5.2-2.6-5.2-4.9v-7.2h-1.5v-3.9h1.5v-4.8h5.1v4.8h2.6v3.9H197V41c0,0.6,0.3,1,1,1h1.6v4.3H197.1z"/>
		<path d="M207,39.6c0,1.4,1.1,2.6,2.9,2.6c1.8,0,2.5-0.5,3.4-1.4l3,3c-1.7,1.7-3.4,2.6-6.5,2.6c-3.7,0-7.9-1.3-7.9-8.5
			c0-5.4,3.1-8.5,7.5-8.5c4.8,0,7.5,3.5,7.5,7.9v2.3H207z M211.7,34.9c-0.3-0.7-1-1.3-2.2-1.3s-1.9,0.6-2.2,1.3
			c-0.2,0.4-0.3,0.9-0.3,1.3h4.9C212,35.8,211.9,35.3,211.7,34.9z"/>
	</g>
	<path class="st0" d="M87.2,59.1c0.5,0.5,1.1,1,1.6,1.5c0.3,0.2,0.6,0.5,0.9,0.7c0,0,0,0,0.1,0c0.7,0.5,1.4,1.1,2.1,1.6
		c0.7,0.5,1.5,1,2.3,1.4c1,0.6,2,1.1,3.1,1.6c0.2,0.1,0.4,0.2,0.6,0.3c0.4,0.2,0.9,0.4,1.3,0.6c0.2,0.1,0.4,0.2,0.7,0.3
		c0.9,0.3,1.8,0.7,2.8,1c0.7,0.2,1.4,0.4,2.1,0.6c1.9,0.5,4,0.9,6.1,1.2c0.2,0,0.4,0.1,0.7,0.1c0.2,0,0.5,0.1,0.7,0.1
		c0.5,0.1,0.9,0.1,1.4,0.2c0.7,0.1,1.3,0.1,2,0.2c0.9,0.1,1.8,0.1,2.7,0.1c0.2,0,0.5,0,0.7,0c1.2,0,2.3,0,3.5,0c0.7,0,1.4,0,2.1-0.1
		c1.7-0.1,3.5-0.2,5.2-0.5c0.3,0,0.6-0.1,0.8-0.1c2-0.3,4-0.6,6-1c0.9-0.2,1.8-0.4,2.7-0.6l0.7-0.2c0.7-0.2,1.4-0.3,2.1-0.5
		c1.6-0.4,3.2-0.9,4.8-1.4l0,0c0.3-0.1,0.5-0.2,0.8-0.3c0.1,0,0.2-0.1,0.2-0.1l0.6-0.2c0.1,0,0.2-0.1,0.2-0.1
		c0.2-0.1,0.5-0.2,0.7-0.2c0,0,0.1,0,0.1,0l0.9-0.3c0,0,0,0,0,0c0.3-0.1,0.6-0.2,0.8-0.3c0,0,0.1,0,0.1,0c0.3-0.1,0.5-0.2,0.8-0.3
		c0,0,0,0,0.1,0c0.6-0.2,1.2-0.5,1.8-0.7l0.8,1.5c0.5,1,1.6,1.3,2.5,0.8c0.3-0.2,0.6-0.4,0.8-0.8l0.9-1.6l3.8-6.7
		c0.6-1.1,0-2.5-1.3-2.7l-9.5-1.5c-0.4-0.1-0.8,0-1.1,0.2c-0.9,0.4-1.3,1.5-0.8,2.5l0.8,1.6c-2.4,1-4.9,1.8-7.3,2.6
		c-1.6,0.5-3.2,0.9-4.8,1.3c-1.2,0.3-2.4,0.6-3.6,0.8c-3,0.6-6,1-8.9,1.3c-1.8,0.2-3.6,0.2-5.3,0.2c-2.3,0-4.5-0.1-6.7-0.3
		c-2.7-0.3-5.3-0.7-7.6-1.4c-3.1-0.8-6-2.1-8.9-3.5c-4-2-7.3-6.3-8.9-8.7c-0.6-0.9-1.8-1.3-2.8-0.8L83.4,50c-1.2,0.6-1.6,2-0.9,3.1
		c1,1.7,2.2,3.3,3.5,4.8C86.4,58.3,86.8,58.7,87.2,59.1L87.2,59.1z M87.2,59.1"/>
</g>
</svg>
